<svg id="Layer_1" data-name="Layer 1" xmlns="http://www.w3.org/2000/svg" viewBox="0 0 3148.79958 1112.67834"><defs><style>.cls-1{fill:#e5730a;}.cls-2{fill:#1b365d;}</style></defs><title>01</title><path class="cls-1" d="M125.579,693.52283s16.27051-75.25208,120.75507-156.859c0,0,46.5235-37.626,129.146-77.54,0-.24237.24237-.509.24237-.76349,8.89752-36.356,17.034-70.42151,24.659-101.94452l.01953-.00488c2.54248-11.18549,5.08984-21.61,7.373-31.523-93.29907,39.15051-228.80017,103.217-306.60187,173.893,0,0-311.93408,239.48395,159.65112,446.93585C260.82318,945.7168,85.91711,828.77173,125.579,693.52283Z" transform="translate(0.00002 0)"/><path class="cls-1" d="M820.11078,287.24744l.00275.01447s152.28778-63.55261,446.1626-130.67542c0,0,362.77686-87.962,945.96509-87.962,0,0,510.48144-19.0675,936.55835,163.214,0,0-144.14429-131.43646-530.31226-191.179,0,0-351.8457-52.62646-704.70679-38.13495,0,0-472.34619,13.728-835.123,104.23248,0,0-271.25665,62.53223-456.07581,133.21552a1.48557,1.48557,0,0,1-1.018.24237q13.72806,52.24356,29.744,108.302C693.5097,332.50092,751.9798,311.14539,820.11078,287.24744Z" transform="translate(0.00002 0)"/><path class="cls-2" d="M1049.16821,428.86853l.00244-.00012c7.62744-38.135,15.00049-72.95435,22.11646-103.978,6.864-31.02374,12.71-54.91443,17.28857-71.69153q-11.05957,1.52454-22.88013,3.05151c-7.62744.76349-16.01587,1.27-24.65894,1.27a216.60653,216.60653,0,0,1-41.44586-4.32147q-17.15991,24.024-45.76,62.53223c-19.0675,25.677-39.65955,52.87854-61.776,81.86151s-44.49,58.727-67.37964,88.98c-22.62549,30.253-43.7265,57.70892-63.04852,82.87946-19.322,24.91345-35.59247,46.01453-48.81152,63.04846s-21.35553,27.20166-24.15247,30.50757c-4.067-10.931-10.67651-31.02368-20.33752-59.99707-9.40656-28.98291-20.08307-62.53223-32.032-100.929-11.69452-38.135-24.15009-79.319-36.59833-123.04553-.76349-2.54248-1.52454-5.33221-2.288-7.882Q581.398,315.11063,567.67,262.85742c-.76349-3.306-1.779-6.6095-2.54248-9.91553a259.17588,259.17588,0,0,1-43.981,4.32153,218.70648,218.70648,0,0,1-41.4458-4.32153c-3.306,14.237-7.11847,30.50751-11.69452,48.81152-2.27832,9.91553-4.8111,20.33752-7.36328,31.53516-7.373,31.52551-15.75427,65.591-24.659,102.199,0,.24237-.24237.509-.24237.76349-8.89752,36.356-18.04956,73.725-27.965,112.11444-9.661,38.896-19.322,76.52209-28.98053,113.13257-9.40649,36.59827-18.813,70.676-27.456,102.199q-13.34747,47.287-23.64349,78.55554a244.60867,244.60867,0,0,1,32.79553-1.77893h16.77948a85.74992,85.74992,0,0,1,16.77948,1.77893c4.067-20.60168,9.152-44.23547,14.998-70.42151,6.10052-26.17627,12.45551-52.87842,19.0675-79.82788s13.47351-53.89648,20.84412-80.337c7.11847-26.44055,13.728-50.845,19.82855-72.95422s11.18555-41.18408,15.51184-57.45459q6.46655-24.04349,9.13745-33.56866c2.797,9.152,7.11847,22.88,12.458,40.9295s11.69452,38.896,18.55847,62.033c6.864,23.38892,13.98248,48.557,21.61,76.01294,7.373,27.45605,15.00049,54.40552,22.371,81.60706,7.373,26.94714,14.49152,53.13293,20.60168,78.55554,6.355,25.42261,11.44,47.5415,15.51184,66.35449,2.288-.509,4.32153-1.01807,6.355-1.27a53.689,53.689,0,0,1,14.746,0c2.03351.24243,4.067.76343,6.355,1.27q32.032-49.95557,63.3006-98.88818,31.65143-48.81152,67.87659-97.87744c24.65906-34.57458,49.82709-68.13354,74.995-100.67456,25.4176-32.5531,51.085-65.09656,77.77026-97.892-4.576,32.2865-9.91553,65.84546-16.016,100.42-6.10059,34.82886-12.458,69.14893-19.0675,103.21692s-13.47351,66.609-20.33752,97.87756S847.05328,818.345,840.69824,841.734a239.76786,239.76786,0,0,1,31.02374-1.77893h70.67358a235.87173,235.87173,0,0,1,30.25305,1.77893c2.288-15.51184,6.10059-38.896,11.18555-69.91248s11.43994-65.59106,18.55847-103.978c7.11853-38.135,14.746-78.30347,22.371-119.99646C1033.66113,507.16956,1041.54321,467.25555,1049.16821,428.86853Z" transform="translate(0.00002 0)"/><path class="cls-2" d="M1358.2959,842.49255a113.92537,113.92537,0,0,0,16.77954-8.13391c1.77905-6.864,3.8125-13.728,5.59375-20.33765l-1.772-5.33716a71.0912,71.0912,0,0,0-6.355,3.558,16.60258,16.60258,0,0,1-7.373,1.77893q-14.4917,0-19.06763-12.20337a69.335,69.335,0,0,1-4.32153-22.37109,174.78648,174.78648,0,0,1,1.77905-22.88c1.01807-9.40662,4.06714-24.407,8.64307-44.49l23.38892-107.793c2.28809-9.91541,4.83057-22.119,7.373-37.11707a248.56,248.56,0,0,0,3.8125-41.4458c0-20.083-3.8125-36.86243-11.69458-50.33594a89.33334,89.33334,0,0,0-30.762-32.2865,132.335,132.335,0,0,0-42.7085-17.28845,220.93458,220.93458,0,0,0-48.81128-5.33221,304.6629,304.6629,0,0,0-151.01294,39.65222c-.509,9.152-1.27,16.77948-1.77905,22.88s-1.52466,14.746-2.54248,26.17633h4.32153a179.72035,179.72035,0,0,1,42.7085-24.15247,131.29023,131.29023,0,0,1,48.81152-8.643,120.64559,120.64559,0,0,1,26.438,3.05145,66.8753,66.8753,0,0,1,24.15015,10.67651,63.13812,63.13812,0,0,1,17.79517,20.33752c4.57593,8.38855,6.86377,19.0675,6.86377,32.2865a98.84555,98.84555,0,0,1-3.05127,27.96509,26.11046,26.11046,0,0,1-10.42212,15.00049,47.60106,47.60106,0,0,1-19.82837,7.37292c-8.38867,1.52454-19.06763,3.05139-32.28662,4.83044-17.79492,2.28809-36.59839,4.83057-56.18433,7.62756a325.04783,325.04783,0,0,0-49.06616,10.422c-29.98633,9.17139-52.86646,25.70605-68.63989,49.08545a135.33623,135.33623,0,0,0-23.64362,76.77649c0,34.57458,10.17969,61.524,30.50763,81.098s47.79346,29.23511,82.36792,29.23511c28.21948,0,51.354-4.83057,69.40357-14.23706s34.06567-26.17627,47.7937-50.59058a185.17612,185.17612,0,0,0,5.594,17.79517,68.72891,68.72891,0,0,0,12.458,20.844,61.08836,61.08836,0,0,0,23.64355,16.27051c10.17969,4.32153,22.87988,6.355,38.387,6.355C1333.89136,848.593,1348.38306,846.55957,1358.2959,842.49255Zm-114.13623-152.0238c-2.28809,10.931-4.83057,22.88013-7.88208,35.33813a142.63226,142.63226,0,0,1-12.458,34.57446,81.60275,81.60275,0,0,1-21.10083,25.934,51.16076,51.16076,0,0,1-32.79565,10.422c-17.28589,0-29.23511-5.84595-35.84448-17.795a80.4296,80.4296,0,0,1-9.91553-40.16846,156.12807,156.12807,0,0,1,8.64771-50.08643c5.84595-17.28845,15.512-30.25305,29.23511-38.896a118.29762,118.29762,0,0,1,35.33813-14.746c13.728-3.306,33.5564-7.11853,59.488-11.18555Z" transform="translate(0.00002 0)"/><path class="cls-2" d="M1700.23315,542.50732l7.87939-3.55786a319.80077,319.80077,0,0,1,7.373-54.66,243.01567,243.01567,0,0,1,21.10107-53.89648,66.57067,66.57067,0,0,0-15.512-6.864,71.94344,71.94344,0,0,0-20.844-2.54248A91.64483,91.64483,0,0,0,1651.928,433.951,178.56162,178.56162,0,0,0,1614.05,464.204a197.991,197.991,0,0,0-27.20166,35.0835c-7.11841,11.69446-12.458,21.101-16.01587,27.965,3.55811-16.01587,6.86377-32.28644,10.42188-48.30249s7.11865-32.2865,11.18555-48.30249c-8.13647,1.27-16.27051,2.03351-24.65894,3.05145-8.38867.76349-18.304,1.27-29.74414,1.27-11.43994,0-22.11646-.509-31.52295-1.27-9.40649-1.018-18.304-1.779-26.44043-3.05145q-14.87182,95.71793-38.387,201.60339c-13.728,61.524-29.23511,122.791-45.76,184.06055-1.77905,6.864-3.55811,13.728-5.594,20.33752a63.79573,63.79573,0,0,1-1.77905,6.6095,196.4802,196.4802,0,0,1,28.47412-1.77893h65.59351a200.35416,200.35416,0,0,1,29.23511,1.77893c10.42188-58.72693,19.06738-104.74158,25.93384-138.55493,6.864-33.559,12.9646-59.74255,18.04956-78.04407,2.28809-9.1521,5.33227-19.322,9.40649-30.76208a116.15476,116.15476,0,0,1,17.28613-31.52551,92.18156,92.18156,0,0,1,28.98047-24.65894c11.69458-6.6095,26.69263-9.91553,44.49-9.91553,12.458-.24231,21.61011,1.01807,27.96509,4.06714l-.00513-.00012A135.136,135.136,0,0,1,1700.23315,542.50732Z" transform="translate(0.00002 0)"/><path class="cls-2" d="M1921.15356,840.20691c28.98047,0,61.26709.50891,97.114,1.77893.509-8.13647,1.52466-16.01587,2.54248-23.64343a153.21477,153.21477,0,0,1,7.87939-28.983c-27.71045,2.79712-56.43652,4.83057-86.68945,5.594-30.25293,1.5271-58.47022,2.03357-84.91064,2.03357l.00024.00244h-47.53906c10.42212-12.71252,23.38916-27.965,38.896-46.26892,15.512-18.04956,32.28662-37.626,50.59058-58.218,18.04956-20.84424,36.86255-41.94751,56.18213-63.812s38.135-42.71106,56.43652-63.04858c18.304-20.083,35.59253-38.896,51.86792-56.18457,16.01587-17.28839,29.99854-31.52539,41.4458-43.22v-36.356c-27.71045,1.27-55.42114,2.03351-83.37646,3.05145-27.96509.76349-55.67554,1.27-83.134,1.27-31.52295,0-63.04614-.509-94.57153-1.27q-46.9043-1.144-94.57153-3.05145,0,15.63547-.76343,26.69495c-.509,7.373-2.03345,17.795-4.32153,31.02374,16.7771-1.018,34.31982-2.288,53.13306-3.56042,18.813-1.2724,36.8623-2.03351,54.65747-3.05145,17.79517-.76349,34.57471-1.52454,50.08179-2.03351s28.21948-.76349,37.87793-.76349c-5.08984,6.864-14.49146,18.04956-27.71045,33.55908s-28.74048,33.55408-46.281,53.8916-36.356,42.202-56.439,65.082c-20.083,23.13452-40.42065,45.76-60.5061,68.64258-20.083,22.62549-39.15039,44.49-57.45459,65.08191-18.04956,20.84412-32.79541,38.38953-44.49,52.624v24.91345c29.74414-1.01794,60.25171-1.77893,91.01367-1.77893Z" transform="translate(0.00002 0)"/><path class="cls-2" d="M2275.28955,807.16895a68.71585,68.71585,0,0,0,12.458,20.84424,63.07188,63.07188,0,0,0,23.64355,16.27051c9.91553,4.32141,22.87988,6.355,38.387,6.355,18.304,0,32.79541-2.03357,42.7085-6.10059a69.93515,69.93515,0,0,0,7.62744-3.558c2.79712-9.91541,5.33227-19.3219,7.88208-28.474-.24243.24243-.76123.509-1.27,1.01807l-.00464-.00977a13.79482,13.79482,0,0,1-7.373,1.77905c-9.91553,0-16.01587-4.06714-19.06738-12.20361a69.33991,69.33991,0,0,1-4.31665-22.37573,174.74778,174.74778,0,0,1,1.77905-22.88013c1.01563-9.40649,4.0669-24.407,8.64307-44.49l23.38647-107.793c2.28784-9.661,4.83057-22.119,7.373-37.11694a248.58942,248.58942,0,0,0,3.8125-41.4458c0-20.083-3.8125-36.86255-11.69458-50.33606a89.3327,89.3327,0,0,0-30.762-32.27924,132.33383,132.33383,0,0,0-42.7085-17.28119,220.885,220.885,0,0,0-48.81152-5.08984,304.66231,304.66231,0,0,0-150.99829,39.65948c-.509,9.152-1.27,16.77948-1.77905,22.88s-1.52466,14.746-2.54248,26.44049h4.32153a179.74147,179.74147,0,0,1,42.68921-24.15247,136.6284,136.6284,0,0,1,48.81152-8.643,120.66041,120.66041,0,0,1,26.438,3.05145,66.863,66.863,0,0,1,24.1499,10.67651,63.138,63.138,0,0,1,17.79492,20.33752c4.83057,8.38855,6.864,19.0675,6.864,32.2865a100.05913,100.05913,0,0,1-3.03955,27.97717,27.32154,27.32154,0,0,1-10.42212,15.00049,51.38554,51.38554,0,0,1-19.82837,7.37292c-8.38843,1.52454-19.06738,3.05139-32.28638,4.83044-17.79492,2.28809-36.59839,4.83057-56.18213,7.88208a324.94854,324.94854,0,0,0-49.06592,10.422c-29.99854,9.152-52.87866,25.677-68.64014,49.066A135.33347,135.33347,0,0,0,2039.623,743.866c0,34.57458,10.17969,61.524,30.50732,81.09814s47.79346,29.2373,82.36816,29.2373c28.21948,0,51.354-4.83044,69.40356-14.23694s34.06543-26.44055,47.79346-50.59045A165.35019,165.35019,0,0,0,2275.28955,807.16895Zm-38.13745-19.5835a51.16024,51.16024,0,0,1-32.79541,10.42188c-17.28613,0-29.23511-5.84595-35.84448-17.79492a80.42418,80.42418,0,0,1-9.91553-40.16846,156.13147,156.13147,0,0,1,8.64307-50.084c5.84595-17.28857,15.512-30.25305,29.23511-38.896a118.29967,118.29967,0,0,1,35.33789-14.74609c13.728-3.30591,33.55908-7.11841,59.488-11.18542l-12.70752,66.60645c-2.28784,10.931-4.83057,22.62549-7.88208,35.338a142.60624,142.60624,0,0,1-12.458,34.57446A81.60724,81.60724,0,0,1,2237.1521,787.58545Z" transform="translate(0.00002 0)"/><path class="cls-2" d="M3074.821,443.61157l-.00073.00037a117.23811,117.23811,0,0,0-35.33081-17.286,132.3765,132.3765,0,0,0-37.62622-5.594,155.24826,155.24826,0,0,0-82.1062,23.389,262.20584,262.20584,0,0,0-66.35205,57.709c-5.84839-26.44049-17.28857-46.53564-35.0835-59.997-17.54077-13.47351-40.16846-20.33752-67.62207-20.33752a163.60246,163.60246,0,0,0-53.38745,8.13647,194.91389,194.91389,0,0,0-40.675,19.322,209.60032,209.60032,0,0,0-29.7439,23.64349c-8.38867,8.38855-15.00049,15.75427-20.3374,22.119,2.28784-10.931,4.57593-21.61,6.864-32.2865a320.51273,320.51273,0,0,1,8.64307-32.2865l-25.93384,3.05145c-8.64307.76349-19.322,1.27-32.032,1.27s-23.38916-.509-32.032-1.27c-8.64307-1.018-17.03393-1.779-24.91357-3.05145-1.27026,5.84595-2.28784,11.18549-3.05151,16.27045s-2.03345,10.931-3.55811,17.795c-1.52466,6.6095-3.05151,14.746-4.83057,24.15247s-4.06689,21.61-6.864,36.59827c-8.655,40.93689-16.02563,75.24963-22.12866,103.22192s-11.69458,53.13293-16.77954,76.01294c-5.33228,22.62549-10.42212,44.999-16.01587,66.35449-3.30347,12.9646-7.11841,26.947-10.93091,41.94751-2.54248,9.152-5.08984,18.55859-7.88208,28.474-.24243.50891-.24243,1.27246-.50659,1.77893a211.26265,211.26265,0,0,1,28.98047-1.77893h62.53223a235.91907,235.91907,0,0,1,30.25317,1.77893c5.332-33.30444,10.67651-64.3208,16.27051-92.79248q8.77112-42.71118,16.01611-74.74292c4.83057-21.35559,9.1521-38.38953,12.458-51.86792,3.5581-13.219,6.10034-22.37085,7.87939-27.71045,10.42212-34.57446,24.40454-61.015,42.2019-79.828,17.79517-18.55847,38.896-27.965,63.04834-27.965,14.49145,0,25.677,3.558,34.06567,10.931,8.38867,7.11841,12.45557,18.304,12.45557,33.30444,0,9.152-2.54248,26.17627-7.88184,50.845-5.08984,24.65894-11.43994,52.62646-19.06738,83.13391-7.373,30.76208-15.512,62.28992-24.1499,94.57385s-16.5249,59.49048-23.38916,82.11609a228.34369,228.34369,0,0,1,27.71045-1.77893h65.07715a230.53727,230.53727,0,0,1,30.762,1.77893q14.4917-84.65863,28.98071-149.74048,14.11121-65.19855,23.64355-94.574c7.38281-25.16321,16.02588-45.24377,25.43945-59.99219s19.06738-25.934,28.98071-33.559a74.94019,74.94019,0,0,1,27.71045-15.00055,87.98175,87.98175,0,0,1,21.60767-3.558c16.01611,0,28.21924,4.576,36.356,13.728a48.91013,48.91013,0,0,1,12.20361,33.81342c0,9.66113-2.28784,26.44055-6.864,50.084s-10.42212,50.33606-17.543,79.82813c-7.11841,29.7439-15.25244,60.50586-24.15234,92.79248s-17.54077,61.015-25.42261,86.183a203.972,203.972,0,0,1,27.96484-1.77893h68.89453a227.9991,227.9991,0,0,1,29.7439,1.77893c2.28784-12.71252,5.332-29.4895,9.40649-50.59045,4.06689-20.84424,8.13672-41.68823,12.45557-62.033s8.134-38.644,11.69434-54.91455c3.30591-16.016,5.594-26.17627,6.864-30.25293,4.57593-19.57654,8.38867-35.847,11.18555-48.81152s5.08984-23.89807,6.864-32.79565,2.79712-16.77942,3.55811-23.64343c.50879-6.864.76343-13.98254.76343-21.61,0-17.28845-3.30591-32.032-9.91528-44.49A83.17745,83.17745,0,0,0,3074.821,443.61157Z" transform="translate(0.00002 0)"/><path class="cls-2" d="M1100.34131,943.91663a84.81847,84.81847,0,0,0-61.08081,24.60657q-23.518,22.649-31.03046,58.03223-9.91022,46.60236,10.23462,68.92,15.35074,16.8761,43.22479,16.87622a82.0254,82.0254,0,0,0,55.85474-20.578,93.46987,93.46987,0,0,0,27.655-42.35376h-21.12256a91.76249,91.76249,0,0,1-15.24292,25.47754,52.08494,52.08494,0,0,1-40.394,18.40051q-26.02441.00348-35.43994-17.48926-9.41895-17.488-3.42944-45.60352,7.29236-34.32752,25.31421-50.94336a59.57887,59.57887,0,0,1,41.646-16.61816q19.38025.00128,28.19946,9.06531,8.81909,9.06647,9.14575,24.57813h21.12256a45.78867,45.78867,0,0,0-10.88794-36.36536Q1130.71838,943.9165,1100.34131,943.91663Z" transform="translate(0.00002 0)"/><path class="cls-2" d="M1229.03565,988.23022a61.98254,61.98254,0,0,0-43.769,17.42053q-18.62073,17.42065-24.93335,46.81775-5.77295,27.43964,4.89966,43.71472,10.66773,16.27734,34.73218,16.27734,28.853.0011,46.49121-18.40051a93.83822,93.83822,0,0,0,23.62647-46.6q6.20361-29.17969-6.15161-44.20459Q1251.57336,988.23022,1229.03565,988.23022Zm20.469,59.77429a87.82871,87.82871,0,0,1-14.20874,32.8269q-10.39929,14.75317-29.88721,14.75305-17.74988,0-23.24561-12.41211-5.49866-12.41217-1.57861-31.03039a77.70328,77.70328,0,0,1,15.18848-33.09912,35.45479,35.45479,0,0,1,29.01611-13.71875q20.25183.00238,25.15112,16.114Q1252.98779,1031.67279,1249.50464,1048.00452Z" transform="translate(0.00002 0)"/><path class="cls-2" d="M1362.52075,988.99219a52.97025,52.97025,0,0,0-21.50366,4.464,70.91115,70.91115,0,0,0-20.63232,14.69861l3.48413-16.54956h-18.61841l-24.71558,116.609h19.59839l12.95654-61.08081a89.00623,89.00623,0,0,1,5.17188-17.58386,38.44746,38.44746,0,0,1,8.87353-11.92224,38.89748,38.89748,0,0,1,16.2229-9.5813,42.0749,42.0749,0,0,1,11.759-1.41553q13.71863.0022,16.6582,10.88782a37.963,37.963,0,0,1-.54443,17.20276l-15.56958,73.493h19.92481l15.89624-74.79956q3.70056-17.63837.87109-27.11072Q1387.34485,988.99213,1362.52075,988.99219Z" transform="translate(0.00002 0)"/><path class="cls-2" d="M1501.23218,994.817a46.19794,46.19794,0,0,0-22.8645-5.825,62.25976,62.25976,0,0,0-43.55127,17.52942,84.21384,84.21384,0,0,0-24.93335,45.62012q-6.09741,28.52618,5.66162,44.368,11.75647,15.84174,33.53467,15.8418a72.87412,72.87412,0,0,0,16.44067-1.74206,58.69917,58.69917,0,0,0,24.60645-11.75891,68.03256,68.03256,0,0,0,12.35767-12.9021,53.09844,53.09844,0,0,0,8.11157-14.3175H1491.324a44.86329,44.86329,0,0,1-10.34351,13.60986,38.32609,38.32609,0,0,1-26.56641,10.12573q-16.44177.00128-22.04785-10.72449-5.60706-10.72321-2.34082-28.47168h85.46948a129.56707,129.56707,0,0,0,3.7019-25.69531,44.10394,44.10394,0,0,0-3.48413-20.578A32.00514,32.00514,0,0,0,1501.23218,994.817Zm-2.61328,45.78381-64.78271.00012a47.39459,47.39459,0,0,1,15.02515-24.7699,36.84922,36.84922,0,0,1,24.71558-9.74463q18.8346.00238,23.84424,14.15418A45.79082,45.79082,0,0,1,1498.6189,1040.60083Z" transform="translate(0.00002 0)"/><path class="cls-2" d="M1599.00464,988.23035a59.963,59.963,0,0,0-41.646,17.09387q-18.564,17.09381-25.09644,47.79761-5.33643,25.04315,4.73608,41.75488,10.07153,16.713,32.93579,16.71289a60.78877,60.78877,0,0,0,35.71216-10.72449q15.35193-10.72449,23.51782-33.91565h-19.05371a53.6245,53.6245,0,0,1-14.1543,20.41467,31.07349,31.07349,0,0,1-20.90454,7.45813q-15.89649.00238-20.7959-11.97668-4.90173-11.97418-1.08862-29.5061a86.01938,86.01938,0,0,1,11.43213-29.28833q11.97546-18.2915,30.70386-18.29163,13.71753.00238,18.40063,7.13159a29.21878,29.21878,0,0,1,4.13721,17.91052h19.05371q2.39539-23.40784-7.8938-32.99Q1618.70947,988.23047,1599.00464,988.23035Z" transform="translate(0.00002 0)"/><path class="cls-2" d="M1678.70386,1093.0802a16.03561,16.03561,0,0,1-7.40381-1.19763q-3.70166-2.06634-2.39526-8.16589l16.2229-76.1062h18.61816l3.37524-16.00513h-18.61816l6.96826-32.55469h-19.81592l-6.968,32.55481H1652.8999l-3.37524,16.00513H1665.312l-16.44067,77.19482q-2.39539,11.21448,1.03418,18.23718t17.14844,7.0227a69.94184,69.94184,0,0,0,8.00244-.43555,49.70434,49.70434,0,0,0,7.34937-1.41553l3.26636-15.46069q-2.28662.21881-3.91968.27222Q1680.11658,1093.08032,1678.70386,1093.0802Z" transform="translate(0.00002 0)"/><path class="cls-2" d="M1804.7854,996.61389q-11.10571-7.83929-31.68359-7.83923a67.02858,67.02858,0,0,0-32.99023,8.43811q-15.2439,8.43823-20.36011,29.99609h18.2915a33.80943,33.80943,0,0,1,7.51269-13.60986q8.16577-8.27472,23.51758-8.27478,13.2832.00238,19.48926,4.51843,6.20471,4.51978,4.02856,14.53528a19.839,19.839,0,0,1-2.83105,7.51257,14.071,14.071,0,0,1-10.34351,5.66162l-32.01025,3.91931a59.76416,59.76416,0,0,0-28.90723,10.9967,40.6766,40.6766,0,0,0-15.51514,25.15112q-3.16,14.80865,5.06274,24.661,8.21814,9.85345,24.44336,9.85352a60.78945,60.78945,0,0,0,25.91309-5.77051,68.49418,68.49418,0,0,0,20.14258-13.60986,23.49466,23.49466,0,0,0,1.08887,10.77905q3.04834,7.186,13.17432,7.186a52.26732,52.26732,0,0,0,6.58716-.32666,60.86175,60.86175,0,0,0,7.24048-1.63318l3.15747-14.48084q-1.96106.32666-3.64746.49-1.68787.16333-2.99414.16333-4.02869.00238-4.84522-1.851a8.046,8.046,0,0,1-.16333-4.89954l14.26318-67.178Q1815.89111,1004.45306,1804.7854,996.61389Zm-21.23144,68.049a35.62137,35.62137,0,0,1-21.88452,26.022,51.75331,51.75331,0,0,1-21.12256,4.79065,19.04815,19.04815,0,0,1-13.66406-4.89941q-5.17419-4.89954-3.3208-13.39209a22.74126,22.74126,0,0,1,12.521-16.33179,53.60554,53.60554,0,0,1,16.98486-4.464l12.19434-1.52429a88.78174,88.78174,0,0,0,11.54126-2.17761,40.71888,40.71888,0,0,0,10.01685-3.81079Z" transform="translate(0.00002 0)"/><path class="cls-2" d="M1908.002,988.99219a52.97,52.97,0,0,0-21.50342,4.464,70.909,70.909,0,0,0-20.63257,14.69861l3.48413-16.54956h-18.61816l-24.71533,116.609h19.59814l12.95654-61.08081a89.022,89.022,0,0,1,5.17163-17.58386,38.44821,38.44821,0,0,1,8.87378-11.92224,38.896,38.896,0,0,1,16.2229-9.5813,42.07318,42.07318,0,0,1,11.75879-1.41553q13.71863.0022,16.6582,10.88782a37.963,37.963,0,0,1-.54443,17.20276l-15.56958,73.493h19.92481l15.89624-74.79956q3.70056-17.63837.87109-27.11072Q1932.826,988.99213,1908.002,988.99219Z" transform="translate(0.00002 0)"/><path class="cls-2" d="M2060.323,947.72729l-12.521,58.90332a38.02758,38.02758,0,0,0-9.47241-11.43225q-7.83911-5.6618-21.23169-5.66187a53.62167,53.62167,0,0,0-41.156,18.67273,92.53876,92.53876,0,0,0-22.32007,44.15027q-5.87952,27.22083,4.89941,43.60584a34.23474,34.23474,0,0,0,30.26831,16.38623,53.09031,53.09031,0,0,0,22.4834-4.79065,57.65317,57.65317,0,0,0,19.5437-15.56958l-3.37524,16.2229h17.63843l34.0791-160.48694Zm-21.01367,102.23694q-4.6842,21.887-15.89624,33.589-11.21558,11.70447-24.82422,11.70447-17.53052.00238-22.81006-12.62976-5.28223-12.62879-1.2522-31.35706,4.682-21.991,16.27734-33.31677a36.79213,36.79213,0,0,1,26.40308-11.32337,22.21448,22.21448,0,0,1,20.03369,10.6156Q2043.98889,1027.863,2039.30933,1049.96423Z" transform="translate(0.00002 0)"/><path class="cls-2" d="M2146.55493,988.23022a61.98254,61.98254,0,0,0-43.769,17.42053q-18.62073,17.42065-24.93311,46.81775-5.77295,27.43964,4.89941,43.71472,10.66773,16.27734,34.73218,16.27734,28.853.0011,46.49121-18.40051a93.83822,93.83822,0,0,0,23.62646-46.6q6.20361-29.17969-6.15161-44.20459Q2169.09265,988.23022,2146.55493,988.23022Zm20.46948,59.77429a87.82871,87.82871,0,0,1-14.20874,32.8269q-10.39929,14.75317-29.88721,14.75305-17.74951,0-23.24561-12.41211-5.49866-12.41217-1.57886-31.03039a77.70329,77.70329,0,0,1,15.18848-33.09912,35.45479,35.45479,0,0,1,29.01611-13.71875q20.25183.00238,25.15112,16.114,3.04724,10.23468-.43555,26.56641Z" transform="translate(0.00002 0)"/><polygon class="cls-2" points="2294.521 948.272 2260.551 1108.214 2280.149 1108.214 2314.119 948.272 2294.521 948.272"/><path class="cls-2" d="M2412.32739,996.61389q-11.10571-7.83929-31.68359-7.83923a67.02792,67.02792,0,0,0-32.99023,8.43811q-15.24426,8.43823-20.36035,29.99609h18.2915a33.80943,33.80943,0,0,1,7.51269-13.60986q8.16614-8.27472,23.51782-8.27478,13.2832.00238,19.48926,4.51843,6.20508,4.51978,4.02857,14.53528a19.839,19.839,0,0,1-2.83106,7.51257,14.071,14.071,0,0,1-10.34351,5.66162l-32.0105,3.91931a59.76416,59.76416,0,0,0-28.90723,10.9967,40.6766,40.6766,0,0,0-15.51514,25.15112q-3.16,14.80865,5.06274,24.661,8.21777,9.85345,24.44336,9.85352a60.79106,60.79106,0,0,0,25.91309-5.77051,68.49418,68.49418,0,0,0,20.14258-13.60986,23.49464,23.49464,0,0,0,1.08887,10.77905q3.04834,7.186,13.17432,7.186a52.26732,52.26732,0,0,0,6.58716-.32666,60.84016,60.84016,0,0,0,7.24048-1.63318l3.15747-14.48084q-1.96106.32666-3.64746.49-1.6875.16333-2.99414.16333-4.02832.00238-4.845-1.851a8.046,8.046,0,0,1-.16333-4.89954l14.26318-67.178Q2423.43311,1004.45306,2412.32739,996.61389Zm-21.23169,68.049a35.62137,35.62137,0,0,1-21.88452,26.022,51.75218,51.75218,0,0,1-21.12232,4.79065,19.04782,19.04782,0,0,1-13.66431-4.89941q-5.17419-4.89954-3.3208-13.39209a22.74186,22.74186,0,0,1,12.521-16.33179,53.60527,53.60527,0,0,1,16.98511-4.464l12.19434-1.52429a88.77039,88.77039,0,0,0,11.541-2.17761,40.7189,40.7189,0,0,0,10.01685-3.81079Z" transform="translate(0.00002 0)"/><path class="cls-2" d="M2560.94653,988.55688a56.72211,56.72211,0,0,0-34.24219,10.23462,43.13168,43.13168,0,0,0-17.584,26.78406q-3.0509,14.04749,7.94824,21.99341,6.09631,4.57526,20.25146,8.27478l14.69849,3.91968a64.03132,64.03132,0,0,1,15.56958,5.55273,9.996,9.996,0,0,1,4.24634,11.43225,20.45161,20.45161,0,0,1-11.37793,14.64416,43.90192,43.90192,0,0,1-20.197,4.73621q-18.29407,0-23.62671-9.47241-2.94214-5.2262-1.74194-15.02527l-18.83594.00012q-2.93958,17.42175,5.3894,29.23389,8.32654,11.81323,34.35107,11.81323,24.171-.0011,38.37964-11.32336a46.13446,46.13446,0,0,0,17.4751-26.89294q3.48413-16.114-6.31494-23.62646-6.20837-4.78821-26.23975-9.908l-12.30322-3.15747a36.73884,36.73884,0,0,1-11.86767-4.79065,10.998,10.998,0,0,1-4.89941-12.19434,17.50685,17.50685,0,0,1,8.11133-11.2146,32.31273,32.31273,0,0,1,17.69287-4.24646q16.65564.0011,21.77563,7.73035a19.04908,19.04908,0,0,1,2.17749,12.08557h18.50928a29.42044,29.42044,0,0,0-2.613-21.12244Q2587.29395,988.55688,2560.94653,988.55688Z" transform="translate(0.00002 0)"/><path class="cls-2" d="M2709.78345,996.61389q-11.10535-7.83929-31.68359-7.83923a67.02791,67.02791,0,0,0-32.99024,8.43811q-15.24426,8.43823-20.36035,29.99609h18.2915a33.80943,33.80943,0,0,1,7.5127-13.60986q8.16614-8.27472,23.51782-8.27478,13.2832.00238,19.48926,4.51843,6.20508,4.51978,4.02856,14.53528a19.84417,19.84417,0,0,1-2.83081,7.51257,14.071,14.071,0,0,1-10.34351,5.66162l-32.0105,3.91931a59.76416,59.76416,0,0,0-28.90723,10.9967,40.6766,40.6766,0,0,0-15.51514,25.15112q-3.16,14.80865,5.06274,24.661,8.21741,9.85345,24.44311,9.85352a60.79107,60.79107,0,0,0,25.91309-5.77051,68.49183,68.49183,0,0,0,20.14258-13.60986,23.49464,23.49464,0,0,0,1.08887,10.77905q3.04834,7.186,13.17432,7.186a52.26733,52.26733,0,0,0,6.58716-.32666,60.81618,60.81618,0,0,0,7.24048-1.63318l3.15747-14.48084q-1.96069.32666-3.64746.49-1.68787.16333-2.99414.16333-4.02869.00238-4.845-1.851a8.046,8.046,0,0,1-.16333-4.89954l14.26318-67.178Q2720.88916,1004.45306,2709.78345,996.61389Zm-21.23144,68.049a35.62137,35.62137,0,0,1-21.88452,26.022,51.75217,51.75217,0,0,1-21.12231,4.79065,19.04782,19.04782,0,0,1-13.66431-4.89941q-5.17383-4.89954-3.3208-13.39209a22.74126,22.74126,0,0,1,12.521-16.33179,53.60527,53.60527,0,0,1,16.98511-4.464l12.19434-1.52429a88.77039,88.77039,0,0,0,11.541-2.17761,40.72375,40.72375,0,0,0,10.01684-3.81079Z" transform="translate(0.00002 0)"/><polygon class="cls-2" points="2731.559 1108.214 2751.157 1108.214 2785.127 948.272 2765.529 948.272 2731.559 1108.214"/><path class="cls-2" d="M2866.895,1048.87537a84.29727,84.29727,0,0,1-9.69019,26.89295q-11.32434,18.2915-31.79248,18.29163-14.26318,0-17.20288-10.45239a31.01136,31.01136,0,0,1,.21777-14.58972l16.44067-77.4126-20.03345.00037-16.87622,79.26355q-3.15857,14.91888-.10889,23.84436,5.443,16.6582,30.3772,16.6582a50.0344,50.0344,0,0,0,29.17944-9.14575,54.15861,54.15861,0,0,0,11.86768-11.2146l-3.81079,17.20276h18.50928l24.71533-116.60889h-19.59814Z" transform="translate(0.00002 0)"/><path class="cls-2" d="M3002.33984,1006.63062a38.02761,38.02761,0,0,0-9.47241-11.43225q-7.83875-5.6618-21.2312-5.66187a53.62167,53.62167,0,0,0-41.156,18.67273,92.53876,92.53876,0,0,0-22.32007,44.15027q-5.87952,27.22083,4.89941,43.60584a34.23474,34.23474,0,0,0,30.26831,16.38623,53.09031,53.09031,0,0,0,22.4834-4.79065,57.65317,57.65317,0,0,0,19.5437-15.56958l-3.37524,16.2229h17.63794l34.0791-160.48694h-18.83594Zm-8.49243,43.33362q-4.68384,21.887-15.89624,33.589-11.21558,11.70447-24.82422,11.70447-17.53088.00238-22.81006-12.62976-5.28223-12.62879-1.2522-31.35706,4.68164-21.991,16.27734-33.31677a36.79213,36.79213,0,0,1,26.40308-11.32337,22.21473,22.21473,0,0,1,20.03369,10.6156Q2998.527,1027.863,2993.84741,1049.96423Z" transform="translate(0.00002 0)"/></svg>